# xmcd
#
# Track frame offsets:
#	150
#	18067
#	33847
#	47780
#	62291
#	75146
#	89825
#	102552
#	121936
#	142076
#	161390
#	183671
#	199866
#	213368
#	231603
#
# Disc length: 3256 seconds
#
# Revision: 0
# Processed by: cddbd v1.5.2PL0 Copyright (c) Steve Scherf et al.
# Submitted via: audiograbber 1.82.02
#
DISCID=c80cb60f
DTITLE=Bob Tutupoli - Seleksi Album Emas
DYEAR=1900
DGENRE=Vocal
TTITLE0=Widuri
TTITLE1=Kerinduan
TTITLE2=Tanpa Cinta
TTITLE3=Mengapa Tiada Maaf
TTITLE4=Tinggi Gunung Seribu Janji
TTITLE5=Jangan Pernah Berkata Benci
TTITLE6=Permata
TTITLE7=Manis Dan Sayang
TTITLE8=Tanpamu
TTITLE9=Widuri - English Version
TTITLE10=Mungkinkah
TTITLE11=Gubahanku
TTITLE12=Andaikan
TTITLE13=Maafkan Diriku
TTITLE14=Why Do You Love Me
EXTD=Indonesian
EXTT0=
EXTT1=
EXTT2=
EXTT3=
EXTT4=
EXTT5=
EXTT6=
EXTT7=
EXTT8=
EXTT9=
EXTT10=
EXTT11=
EXTT12=
EXTT13=
EXTT14=
PLAYORDER=
